<svg width="21" height="22" viewBox="0 0 21 22" fill="none" xmlns="http://www.w3.org/2000/svg">
<path opacity="0.2" d="M20.9436 11.0893C20.9436 16.805 16.3102 21.4385 10.5946 21.4385C4.87892 21.4385 0.245483 16.805 0.245483 11.0893C0.245483 5.37367 4.87892 0.740234 10.5946 0.740234C16.3102 0.740234 20.9436 5.37367 20.9436 11.0893" fill="#D69331"/>
<path d="M9.75454 13.3527H13.1033V15.0192H11.0414C11.0749 15.496 11.0934 15.938 11.1269 16.4132H9.39214V15.0358H7.33017C7.33017 14.4908 7.26139 13.9475 7.36373 13.4374C7.41574 13.1649 7.72445 12.9273 7.91404 12.6897C8.56668 11.9237 9.21933 11.176 9.88876 10.4101C10.1471 10.121 10.4038 9.84847 10.6958 9.52613H7.48453V7.85961H9.39047V6.46558H11.0565V7.82638H13.1352C13.1352 8.38798 13.204 8.9313 13.1017 9.44306C13.0497 9.71555 12.741 9.95315 12.5346 10.1907C11.8819 10.9567 11.2293 11.7044 10.5599 12.4704C10.3048 12.7744 10.0481 13.0453 9.75454 13.3527V13.3527Z" fill="#D69331"/>
</svg>
