<svg width="22" height="22" viewBox="0 0 22 22" fill="none" xmlns="http://www.w3.org/2000/svg">
<path opacity="0.2" d="M21.1583 11.0893C21.1583 16.805 16.5249 21.4385 10.8093 21.4385C5.09358 21.4385 0.460144 16.805 0.460144 11.0893C0.460144 5.37367 5.09358 0.740234 10.8093 0.740234C16.5248 0.740234 21.1583 5.37367 21.1583 11.0893" fill="#505050"/>
<g opacity="0.8">
<path d="M10.7762 6.28711L10.7123 6.50438V12.809L10.7762 12.8728L13.7027 11.1429L10.7762 6.28711Z" fill="white"/>
<path d="M10.7762 6.28711L7.84967 11.1429L10.7762 12.8728V9.81276V6.28711Z" fill="white"/>
<path d="M10.7763 13.8249L10.7402 13.8689V16.1147L10.7763 16.2199L13.7046 12.0959L10.7763 13.8249Z" fill="white"/>
<path d="M10.7762 16.2199V13.8249L7.84967 12.0959L10.7762 16.2199Z" fill="white"/>
<path d="M10.7762 12.873L13.7027 11.1432L10.7762 9.81299V12.873Z" fill="white"/>
<path d="M7.84967 11.1429L10.7762 12.8728V9.81274L7.84967 11.1429Z" fill="white"/>
</g>
</svg>
