<svg width="22" height="22" viewBox="0 0 22 22" fill="none" xmlns="http://www.w3.org/2000/svg">
<path opacity="0.2" d="M21.1175 13.606C19.728 19.1796 14.0825 22.5713 8.50829 21.1817C2.93665 19.7921 -0.455363 14.1467 0.934539 8.57339C2.32347 2.99916 7.96858 -0.393182 13.5412 0.996395C19.1151 2.38597 22.5068 8.03206 21.1172 13.606H21.1175Z" fill="#F7931A"/>
<path fill-rule="evenodd" clip-rule="evenodd" d="M14.1588 9.88024C14.2991 8.9411 13.584 8.43624 12.6063 8.09944L12.9234 6.82726L12.1488 6.63427L11.84 7.87293C11.6367 7.8222 11.4276 7.77434 11.2198 7.72692L11.5308 6.4801L10.7569 6.28711L10.4395 7.55885C10.271 7.52048 10.1056 7.48254 9.945 7.44262L9.94588 7.43865L8.87794 7.17199L8.67193 7.99909C8.67193 7.99909 9.24649 8.13076 9.23436 8.13892C9.54799 8.21722 9.6049 8.42477 9.59519 8.5893L9.23392 10.0386C9.25553 10.0441 9.28354 10.0521 9.31442 10.0644L9.23282 10.0441L8.72619 12.0744C8.68781 12.1696 8.59055 12.3126 8.37131 12.2583C8.37903 12.2696 7.80845 12.1178 7.80845 12.1178L7.42401 13.0045L8.43197 13.2557C8.54575 13.2842 8.65815 13.3135 8.76932 13.3425C8.84132 13.3613 8.9128 13.3799 8.9838 13.3982L8.66333 14.6851L9.43683 14.8781L9.75444 13.605C9.96551 13.6624 10.1706 13.7153 10.3713 13.7652L10.0551 15.0323L10.8294 15.2253L11.1499 13.9409C12.4704 14.1908 13.4636 14.09 13.8811 12.8959C14.2179 11.9343 13.8646 11.3796 13.1698 11.0177C13.6758 10.9005 14.0569 10.5677 14.1586 9.88024H14.1588ZM12.3893 12.3613C12.1695 13.2439 10.7877 12.8787 10.156 12.7118C10.0995 12.6969 10.0489 12.6835 10.0057 12.6728L10.431 10.9681C10.4837 10.9812 10.5482 10.9957 10.6212 11.0121C11.2747 11.1587 12.6139 11.4592 12.3895 12.3613H12.3893ZM10.7526 10.221C11.2796 10.3616 12.4285 10.6681 12.6287 9.86636C12.8333 9.04611 11.7161 8.79889 11.1705 8.67815C11.1092 8.66458 11.0551 8.6526 11.0109 8.64159L10.6253 10.1877C10.6618 10.1968 10.7046 10.2082 10.7526 10.221Z" fill="#F7931A"/>
</svg>
