<svg width="32" height="22" viewBox="0 0 32 22" fill="none" xmlns="http://www.w3.org/2000/svg">
<rect x="0.731079" y="0.757812" width="30.7536" height="20.6626" rx="10.3313" fill="#01326F"/>
<path d="M18.8685 5.98926H13.193V16.189H18.8685V5.98926Z" fill="#FF5F00"/>
<path d="M13.5534 11.0903C13.5523 10.1078 13.7748 9.138 14.2041 8.25428C14.6333 7.37055 15.258 6.59607 16.0308 5.98948C15.0739 5.23747 13.9247 4.76984 12.7146 4.64003C11.5046 4.51022 10.2824 4.72348 9.18773 5.25543C8.09311 5.78738 7.17023 6.61656 6.52456 7.64821C5.8789 8.67985 5.5365 9.87233 5.5365 11.0894C5.5365 12.3064 5.8789 13.4989 6.52456 14.5305C7.17023 15.5622 8.09311 16.3913 9.18773 16.9233C10.2824 17.4552 11.5046 17.6685 12.7146 17.5387C13.9247 17.4089 15.0739 16.9413 16.0308 16.1892C15.2582 15.5828 14.6337 14.8087 14.2045 13.9253C13.7752 13.0419 13.5526 12.0724 13.5534 11.0903V11.0903Z" fill="#EB001B"/>
<path d="M26.526 11.09C26.526 12.3072 26.1835 13.4997 25.5377 14.5314C24.8919 15.5631 23.9689 16.3922 22.8742 16.9241C21.7794 17.456 20.5571 17.6691 19.3469 17.5391C18.1368 17.4091 16.9876 16.9413 16.0308 16.189C16.803 15.5821 17.4274 14.8077 17.8567 13.9242C18.2861 13.0408 18.5091 12.0714 18.5091 11.0891C18.5091 10.1069 18.2861 9.13748 17.8567 8.25404C17.4274 7.37059 16.803 6.59619 16.0308 5.98926C16.9876 5.23701 18.1368 4.76915 19.3469 4.63915C20.5571 4.50916 21.7794 4.72228 22.8742 5.25416C23.9689 5.78603 24.8919 6.6152 25.5377 7.64688C26.1835 8.67855 26.526 9.87111 26.526 11.0882V11.09Z" fill="#F79E1B"/>
</svg>
