<svg width="64" height="14" viewBox="0 0 64 14" fill="none" xmlns="http://www.w3.org/2000/svg">
<g clip-path="url(#clip0_1103_2130)">
<path d="M56.7654 7.1298C56.7654 5.37971 55.4307 3.96313 53.5454 3.96313C51.6974 3.96313 50.3816 5.32442 50.3816 7.1949C50.3816 9.07474 51.7348 10.4449 53.6762 10.4449C54.908 10.4449 55.9439 9.89874 56.5879 8.78759L55.2815 8.18565C54.9736 8.74122 54.3013 9.10239 53.6762 9.10239C52.883 9.10239 51.9684 8.50981 51.9123 7.68582H56.7187C56.7465 7.50925 56.7654 7.33357 56.7654 7.1298ZM51.9401 6.59251C52.052 5.75915 52.6309 5.21295 53.5548 5.21295C54.4694 5.21295 55.0293 5.75024 55.1039 6.59251H51.9401Z" fill="black"/>
<path d="M38.7738 3.9624C36.8791 3.9624 35.5354 5.31432 35.5354 7.22181C35.5354 9.11102 36.8791 10.4442 38.7927 10.4442C40.7153 10.4442 42.0594 9.11102 42.0594 7.24945C42.059 5.33305 40.678 3.9624 38.7738 3.9624ZM38.7927 9.02764C37.8409 9.02764 37.2526 8.32403 37.2526 7.23117C37.2526 6.12003 37.8498 5.36069 38.7927 5.36069C39.7445 5.36069 40.3418 6.11067 40.3418 7.23117C40.3418 8.3334 39.754 9.02764 38.7927 9.02764Z" fill="black"/>
<path d="M32.0276 3.9646C31.2511 3.9646 30.6664 4.22722 30.0817 4.88H29.8898C29.497 4.29099 28.8575 3.9646 28.1358 3.9646C27.396 3.9646 26.7197 4.2999 26.2905 4.88H26.0986L26.0896 4.87108V4.09168H24.4825V10.3091H26.2182V7.10986C26.2182 6.07675 26.6568 5.46946 27.4149 5.46946C28.1182 5.46946 28.5748 5.98623 28.5748 6.77456V10.3091H30.3194V7.10986C30.3194 6.08567 30.7581 5.46946 31.5252 5.46946C32.2195 5.46946 32.6671 5.98623 32.6671 6.78347V10.3091H34.4117V6.57525C34.4122 4.95268 33.5349 3.9646 32.0276 3.9646Z" fill="black"/>
<path d="M60.6265 8.15266H60.5024C60.5024 8.04208 59.7456 6.07306 59.2495 4.85446L58.9394 4.09155H57.1903L59.671 10.3308L58.6913 12.706H60.4278L64.0002 4.09155H62.2511L61.9657 4.74388L60.9981 7.1191C60.7258 7.78347 60.6139 8.09113 60.6265 8.15266Z" fill="black"/>
<path d="M46.8738 3.96436C46.0972 3.96436 45.4303 4.29966 44.9827 4.89804H44.7998L44.7814 4.88912V4.09143H43.1738V10.3088H44.9094V7.12745C44.9094 6.11218 45.4029 5.47813 46.2159 5.47813C46.974 5.47813 47.5313 6.03994 47.5313 6.92814V10.3088H49.2669V6.55672C49.2669 5.03403 48.262 3.96436 46.8738 3.96436Z" fill="black"/>
<path d="M12.6952 0.400635C8.94535 0.400635 5.93298 3.41035 5.93298 7.08889C5.93298 10.7977 8.97591 13.7771 12.6952 13.7771C16.4145 13.7771 19.4574 10.7674 19.4574 7.08889C19.4574 3.41035 16.4145 0.400635 12.6952 0.400635ZM12.6952 9.58182C11.3119 9.58182 10.1749 8.45686 10.1749 7.08889C10.1749 5.72092 11.3124 4.59595 12.6952 4.59595C14.078 4.59595 15.2159 5.72092 15.2159 7.08889C15.1849 8.45686 14.0785 9.58182 12.6952 9.58182Z" fill="#8B3FFD"/>
<path d="M5.93286 2.34375V12.072H3.53573L0.461792 2.34375H5.93286Z" fill="#8B3FFD"/>
</g>
<defs>
<clipPath id="clip0_1103_2130">
<rect width="63.5384" height="13.3765" fill="white" transform="translate(0.462036 0.400635)"/>
</clipPath>
</defs>
</svg>
