<svg width="32" height="22" viewBox="0 0 32 22" fill="none" xmlns="http://www.w3.org/2000/svg">
<rect x="0.462158" y="0.757812" width="30.7536" height="20.6626" rx="10.3313" fill="#D7FFD8"/>
<path d="M25.0004 7.72534H20.5598C20.8185 9.19117 22.2412 10.5708 23.7933 10.5708H27.3285C27.3716 10.4414 27.3716 10.2259 27.3716 10.0965C27.3716 8.80315 26.2938 7.72534 25.0004 7.72534Z" fill="#27B1E6"/>
<path d="M20.9478 10.8296V14.4079H23.1034V12.511H25.0003C26.035 12.511 26.9404 11.7781 27.2422 10.8296H20.9478Z" fill="#4FAD50"/>
<path d="M13.36 7.72534V14.3647H15.2569C15.2569 14.3647 15.7312 14.3647 15.9899 13.8904C17.2832 11.3468 17.6712 10.5708 17.6712 10.5708H17.9299V14.3647H20.0855V7.72534H18.1886C18.1886 7.72534 17.7143 7.76846 17.4557 8.19958C16.3779 10.3983 15.7743 11.5192 15.7743 11.5192H15.5156V7.72534H13.36Z" fill="#4FAD50"/>
<path d="M4.3064 14.4079V7.76855H6.46202C6.46202 7.76855 7.0656 7.76855 7.4105 8.71703C8.27275 11.2176 8.35898 11.5625 8.35898 11.5625C8.35898 11.5625 8.53143 10.9589 9.30745 8.71703C9.65235 7.76855 10.2559 7.76855 10.2559 7.76855H12.4116V14.4079H10.2559V10.8295H9.99725L8.79011 14.4079H7.84163L6.63448 10.8295H6.37581V14.4079H4.3064Z" fill="#4FAD50"/>
</svg>
