<svg width="46" height="22" viewBox="0 0 46 22" fill="none" xmlns="http://www.w3.org/2000/svg">
<g clip-path="url(#clip0_1103_2126)">
<path d="M22.3442 13.1418H23.4907C24.0705 13.1418 24.4922 13.4456 24.4922 13.974C24.4922 14.2778 24.3472 14.5287 24.0969 14.6608V14.674C24.4526 14.7797 24.624 15.1099 24.624 15.4401C24.624 16.0874 24.11 16.3779 23.517 16.3779H22.3442V13.1418ZM23.5039 14.4627C23.7542 14.4627 23.8992 14.2778 23.8992 14.0532C23.8992 13.8287 23.7542 13.657 23.4907 13.657H22.9372V14.4759H23.5039V14.4627V14.4627ZM23.5566 15.876C23.8597 15.876 24.031 15.6779 24.031 15.4005C24.031 15.1363 23.8597 14.9382 23.5566 14.9382H22.9241V15.876H23.5566ZM26.2316 14.0004C26.5479 14.0004 26.9037 14.1061 27.1277 14.3438L26.8641 14.7401C26.7192 14.5948 26.4952 14.4891 26.258 14.4891C25.8363 14.4891 25.5596 14.8061 25.5596 15.2024C25.5596 15.5986 25.8363 15.9289 26.2843 15.9289C26.5347 15.9289 26.7983 15.7968 26.9696 15.6383L27.1936 16.0477C26.9696 16.2855 26.6138 16.4308 26.2448 16.4308C25.4805 16.4308 24.9798 15.8892 24.9798 15.2156C24.9798 14.5552 25.4673 14.0004 26.2316 14.0004ZM28.5772 14.0004C29.2361 14.0004 29.6051 14.4891 29.6051 15.0967C29.6051 15.176 29.5919 15.242 29.5919 15.3213H27.9974C28.0369 15.7307 28.34 15.9421 28.6958 15.9421C28.933 15.9421 29.1702 15.8364 29.3547 15.6911L29.5787 16.1006C29.3415 16.3119 28.9726 16.4308 28.6431 16.4308C27.8788 16.4308 27.3912 15.876 27.3912 15.2156C27.4044 14.5023 27.892 14.0004 28.5772 14.0004ZM27.9183 13.1418H28.3664V13.6702H27.9183V13.1418ZM29.0253 14.925C29.0253 14.6212 28.8144 14.4363 28.5641 14.4363C28.2741 14.4363 28.0633 14.6344 28.0106 14.925H29.0253ZM28.7485 13.1418H29.1834V13.6702H28.7485V13.1418ZM31.2259 14.0532H33.3343V16.3779H32.7545V14.542H31.7926V16.3779H31.2127V14.0532H31.2259ZM33.9537 14.0532H34.4808V14.2249C34.4808 14.3174 34.4676 14.3835 34.4676 14.3835H34.4808C34.6257 14.1325 34.9156 13.9872 35.2319 13.9872C35.8644 13.9872 36.2598 14.4891 36.2598 15.2024C36.2598 15.9421 35.8117 16.4176 35.2055 16.4176C34.942 16.4176 34.7048 16.2987 34.5335 16.0874H34.5203C34.5203 16.0874 34.5335 16.1666 34.5335 16.2855V17.2629H33.9537V14.0532ZM35.0869 15.9421C35.4032 15.9421 35.6668 15.6779 35.6668 15.2288C35.6668 14.7929 35.4296 14.5023 35.1001 14.5023C34.797 14.5023 34.5203 14.7269 34.5203 15.242C34.5071 15.5854 34.718 15.9421 35.0869 15.9421ZM37.8674 14.0004C38.579 14.0004 39.1456 14.5023 39.1456 15.2156C39.1456 15.9289 38.579 16.4308 37.8674 16.4308C37.1558 16.4308 36.5892 15.9289 36.5892 15.2156C36.5892 14.5023 37.169 14.0004 37.8674 14.0004ZM37.8674 15.9421C38.2496 15.9421 38.5527 15.6515 38.5527 15.2156C38.5527 14.7929 38.2364 14.4891 37.8674 14.4891C37.4984 14.4891 37.1822 14.7797 37.1822 15.2156C37.1822 15.6515 37.4853 15.9421 37.8674 15.9421ZM39.6069 14.0532H40.1603V15.8892H40.8851V14.0532H41.4385V15.8892H42.1633V14.0532H42.7168V15.8892H43.0462V16.9327H42.5323V16.3912H39.6332V14.0532H39.6069ZM44.4562 14.0004C45.1151 14.0004 45.4841 14.4891 45.4841 15.0967C45.4841 15.176 45.4709 15.242 45.4709 15.3213H43.8764C43.9159 15.7307 44.219 15.9421 44.5748 15.9421C44.812 15.9421 45.0492 15.8364 45.2337 15.6911L45.4577 16.1006C45.2205 16.3119 44.8515 16.4308 44.5221 16.4308C43.7578 16.4308 43.2702 15.876 43.2702 15.2156C43.2702 14.5023 43.7578 14.0004 44.4562 14.0004ZM44.9042 14.925C44.9042 14.6212 44.6934 14.4363 44.443 14.4363C44.1531 14.4363 43.9423 14.6344 43.8896 14.925H44.9042Z" fill="#2D3540"/>
<path d="M32.2674 3.8692V10.5395C32.2674 10.6452 32.1884 10.7245 32.083 10.7245H30.7257C30.6202 10.7245 30.5412 10.6452 30.5412 10.5395V3.8692C30.5412 3.76353 30.6202 3.68428 30.7257 3.68428H32.083C32.1884 3.68428 32.2674 3.77674 32.2674 3.8692ZM42.8622 3.68428H41.3468C41.2677 3.68428 41.2018 3.73711 41.1755 3.81636L39.9763 7.76573L38.6586 3.81636C38.6322 3.73711 38.5663 3.69749 38.4873 3.69749H37.4067C37.3276 3.69749 37.2617 3.75032 37.2354 3.81636L35.9176 7.76573L34.7185 3.81636C34.6921 3.73711 34.6262 3.68428 34.5472 3.68428H33.0317C32.979 3.68428 32.9131 3.7107 32.8868 3.76353C32.8473 3.81636 32.8473 3.8692 32.8604 3.92203L35.1006 10.6056C35.127 10.6848 35.1929 10.7245 35.2719 10.7245H36.4843C36.5633 10.7245 36.6292 10.6716 36.6556 10.6056L37.9602 6.70904L39.2647 10.6056C39.2911 10.6848 39.357 10.7245 39.436 10.7245H40.6484C40.7274 10.7245 40.7933 10.6716 40.8197 10.6056L43.0599 3.92203C43.073 3.8692 43.073 3.80316 43.0335 3.76353C42.9808 3.7239 42.9281 3.68428 42.8622 3.68428ZM45.1551 3.68428H43.7978C43.6924 3.68428 43.6133 3.76353 43.6133 3.8692V10.5395C43.6133 10.6452 43.6924 10.7245 43.7978 10.7245H45.1551C45.2605 10.7245 45.3396 10.6452 45.3396 10.5395V3.8692C45.3396 3.77674 45.2605 3.68428 45.1551 3.68428ZM29.7637 10.4999C29.8428 10.5924 29.7769 10.7245 29.6583 10.7245H27.9979C27.932 10.7245 27.8661 10.698 27.8266 10.6452L27.5499 10.3018C26.9701 10.6716 26.2848 10.8962 25.5601 10.8962C23.5307 10.8962 21.8835 9.24509 21.8835 7.21097C21.8835 5.17685 23.5307 3.52578 25.5601 3.52578C27.5894 3.52578 29.2366 5.17685 29.2366 7.21097C29.2366 7.93744 29.0258 8.62429 28.6568 9.20547L29.7637 10.4999ZM26.4561 9.00734L25.7314 8.12236C25.6523 8.0299 25.7182 7.88461 25.8368 7.88461H27.3654C27.4445 7.67327 27.484 7.43552 27.484 7.19776C27.484 6.10145 26.667 5.15043 25.5469 5.15043C24.4268 5.15043 23.6098 6.10145 23.6098 7.19776C23.6098 8.29407 24.4268 9.23188 25.5469 9.23188C25.8763 9.24509 26.1794 9.16584 26.4561 9.00734ZM16.3885 14.621C16.4412 15.0172 16.3226 15.189 16.1908 15.189C16.059 15.189 15.8745 15.0305 15.6769 14.7134C15.4792 14.3964 15.4002 14.0398 15.5056 13.8549C15.5715 13.736 15.7032 13.6832 15.8877 13.7492C16.2172 13.8549 16.3489 14.3832 16.3885 14.621ZM14.5304 15.4795C14.9389 15.823 15.0575 16.2324 14.8467 16.5098C14.7281 16.6683 14.5304 16.7476 14.3064 16.7476C14.0824 16.7476 13.8452 16.6683 13.6871 16.523C13.3181 16.206 13.2127 15.6777 13.4499 15.3871C13.5421 15.2682 13.7002 15.2022 13.8716 15.2022C14.0956 15.2154 14.3196 15.321 14.5304 15.4795ZM13.8452 18.7817C15.5846 18.7817 17.469 19.3761 19.5511 21.2385C19.7619 21.4234 20.0387 21.1989 19.8542 20.9611C17.7985 18.359 15.9009 17.8703 14.0165 17.4476C11.6973 16.9325 10.5113 15.6248 9.68109 14.1983C9.50978 13.9077 9.44389 13.9606 9.43071 14.3304C9.41754 14.7795 9.44389 15.3739 9.54931 15.9551C9.45707 15.9551 9.36483 15.9551 9.27258 15.9551C5.96501 15.9551 3.27679 13.2605 3.27679 9.94515C3.27679 6.62979 5.96501 3.93524 9.27258 3.93524C12.5802 3.93524 15.2684 6.62979 15.2684 9.94515C15.2684 10.1829 15.2552 10.4207 15.2288 10.6452C14.794 10.566 13.9243 10.5527 13.3181 10.6056C13.0941 10.6188 13.1204 10.7377 13.2917 10.7641C15.2684 11.1207 16.6388 12.3491 16.9419 14.5946C16.9551 14.6474 17.021 14.6606 17.0473 14.621C17.8644 13.2605 18.3256 11.6623 18.3256 9.95836C18.3256 4.93909 14.2669 0.87085 9.25941 0.87085C4.25193 0.87085 0.193237 4.93909 0.193237 9.95836C0.193237 14.9776 4.25193 19.0459 9.25941 19.0459C10.5903 19.0459 11.9081 18.7817 13.8452 18.7817Z" fill="#FF8C00"/>
</g>
<defs>
<clipPath id="clip0_1103_2126">
<rect width="45.2913" height="20.4363" fill="white" transform="translate(0.193237 0.87085)"/>
</clipPath>
</defs>
</svg>
