<svg width="31" height="22" viewBox="0 0 31 22" fill="none" xmlns="http://www.w3.org/2000/svg">
<rect y="0.757812" width="30.7536" height="20.6626" rx="10.3313" fill="url(#paint0_linear_1103_2111)"/>
<path d="M15.7728 9.86635C15.7596 10.9038 16.6974 11.4829 17.4038 11.8271C18.1296 12.1803 18.3734 12.4068 18.3707 12.7226C18.3651 13.206 17.7917 13.4193 17.2549 13.4277C16.3185 13.4422 15.7741 13.1749 15.3413 12.9726L15.004 14.551C15.4382 14.7512 16.2423 14.9257 17.0762 14.9333C19.0335 14.9333 20.3141 13.9672 20.321 12.4691C20.3286 10.5679 17.6912 10.4627 17.7092 9.61286C17.7155 9.35521 17.9613 9.08025 18.5002 9.0103C18.7668 8.97498 19.5031 8.94797 20.3376 9.33236L20.6652 7.80519C20.2164 7.64174 19.6395 7.48522 18.9213 7.48522C17.079 7.48522 15.7831 8.46454 15.7728 9.86635ZM23.8131 7.61681C23.4557 7.61681 23.1544 7.82528 23.02 8.14526L20.224 14.8211H22.1799L22.5692 13.7456H24.9593L25.1851 14.8211H26.9089L25.4046 7.61681H23.8131ZM24.0866 9.56299L24.6511 12.2683H23.1052L24.0866 9.56299ZM13.4013 7.61681L11.8596 14.8211H13.7234L15.2644 7.61681H13.4013ZM10.6441 7.61681L8.70416 12.5204L7.91945 8.35096C7.82733 7.88553 7.46372 7.61681 7.05994 7.61681H3.88856L3.84424 7.82597C4.49527 7.96726 5.23496 8.19512 5.68307 8.43892C5.95734 8.58782 6.0356 8.71803 6.12564 9.07194L7.61194 14.8211H9.58167L12.6014 7.61681H10.6441Z" fill="white"/>
<defs>
<linearGradient id="paint0_linear_1103_2111" x1="13.8151" y1="21.4204" x2="20.17" y2="1.20724" gradientUnits="userSpaceOnUse">
<stop stop-color="#222357"/>
<stop offset="1" stop-color="#254AA5"/>
</linearGradient>
</defs>
</svg>
