<svg width="70" height="22" viewBox="0 0 70 22" fill="none" xmlns="http://www.w3.org/2000/svg">
<g clip-path="url(#clip0_1103_2140)">
<path d="M58.1328 4.43335C59.2148 4.43335 60.2441 4.68096 61.168 5.12487C61.3129 5.19006 61.4586 5.26844 61.6028 5.34682L60.9696 5.90794L60.0201 4.92927L58.3839 6.36432L57.4205 5.33364L54.4116 8.00815L56.3377 10.1084L55.5859 10.7603L57.4863 12.8605L56.7345 13.5125L59.4534 16.4998L61.0625 15.0384L62.4622 16.6046C62.1848 16.8134 61.881 17.0228 61.5515 17.2045C60.5486 17.7657 59.3868 18.091 58.1466 18.091C54.3326 18.091 51.2315 15.026 51.2315 11.2556C51.2176 7.51222 54.3194 4.43335 58.1328 4.43335ZM56.8656 10.8387L58.5149 9.37731L59.993 11.008L58.3429 12.4694L56.8656 10.8387ZM58.0405 13.6568L59.6767 12.1829L61.168 13.8135L59.5179 15.275L58.0405 13.6568ZM55.692 8.06017L57.3414 6.59876L58.8194 8.2294L57.1694 9.69081L55.692 8.06017ZM58.7133 7.2771L59.941 6.18121L61.05 7.39431L59.8224 8.50337L58.7133 7.2771ZM60.9044 12.3001L62.1314 11.2042L63.2404 12.4305L62.0128 13.5271L60.9044 12.3001ZM61.9864 14.7659L63.2141 13.67L64.3217 14.8831L63.0948 15.9914L61.9864 14.7659ZM62.4879 9.12969L63.3056 8.39933L64.0443 9.20876L63.2265 9.93912L62.4879 9.12969ZM61.4322 6.71598L62.2507 5.97244L62.99 6.79435L62.1716 7.52471L61.4322 6.71598ZM63.5303 11.5434L64.3481 10.8131L65.1 11.6218L64.269 12.3521L63.5303 11.5434ZM59.8487 9.73035L61.0764 8.63446L62.1848 9.84756L60.9578 10.9434L59.8487 9.73035Z" fill="#036CB5"/>
<mask id="mask0_1103_2140" style="mask-type:alpha" maskUnits="userSpaceOnUse" x="5" y="7" width="8" height="7">
<path d="M5.52063 7.27124V13.5767H12.734V7.27124H5.52063Z" fill="white"/>
</mask>
<g mask="url(#mask0_1103_2140)">
<path d="M9.14051 9.1384H9.07809L7.90938 13.5767H6.95429L5.52063 7.27124H6.51178L7.50293 11.9759H7.56466L8.71533 7.27124H9.50326L10.733 11.9759H10.7954L11.6978 7.27124H12.734L11.2997 13.5767H10.3439L9.14051 9.1384Z" fill="#036CB5"/>
</g>
<path d="M13.9909 10.8921H16.0169C15.9732 9.9585 15.5216 9.58534 15.0437 9.58534C14.5041 9.58534 14.088 10.0036 13.9909 10.8921ZM16.725 12.565V13.2413C16.3269 13.4723 15.7963 13.6505 15.1589 13.6505C13.6725 13.6505 13.0621 12.7253 13.0621 11.3207C13.0621 9.96821 13.7432 8.99023 15.0708 8.99023C16.1771 8.99023 16.8589 9.71088 16.8589 11.1605V11.49H13.9735C13.9735 12.5567 14.407 13.0284 15.3191 13.0284C15.7963 13.027 16.2388 12.8577 16.725 12.565Z" fill="#036CB5"/>
<path d="M18.9168 12.9366C19.1997 13.0608 19.5098 13.0795 19.7317 13.0795C20.3865 13.0795 20.8817 12.6696 20.8817 11.2297C20.8817 10.0998 20.4746 9.73566 19.8822 9.73566C19.5278 9.73566 19.2712 9.83415 18.9175 10.029V12.9366H18.9168ZM18.9265 9.37083C19.1914 9.22933 19.6423 9.04137 20.1208 9.04137C21.2181 9.04137 21.8111 9.80641 21.8111 11.2297C21.8111 12.8929 21.0142 13.7023 19.7317 13.7023C19.2622 13.7023 18.5367 13.5511 18.0054 13.2661V7.05838L18.9265 6.83643V9.37083Z" fill="#036CB5"/>
<path d="M25.7945 12.239H25.8389L27.7325 7.26733H28.8304V13.5735H27.8746V9.00133H27.7949L25.9888 13.5735H25.4228L23.6173 9.10883H23.5376V13.5735H22.7413V7.26733H23.8122L25.7945 12.239Z" fill="#036CB5"/>
<path d="M32.7353 11.32C32.7353 10.1194 32.2491 9.61235 31.6471 9.61235C31.0631 9.61235 30.5581 10.1194 30.5581 11.32C30.5581 12.5386 31.0187 13.0276 31.6471 13.0276C32.2748 13.0269 32.7353 12.5386 32.7353 11.32ZM29.6294 11.32C29.6294 9.76286 30.479 8.9895 31.6471 8.9895C32.8158 8.9895 33.6647 9.76286 33.6647 11.32C33.6647 12.8403 32.8595 13.6505 31.6471 13.6505C30.4347 13.6505 29.6294 12.8403 29.6294 11.32Z" fill="#036CB5"/>
<path d="M34.3654 9.64769C34.7635 9.40701 35.6048 8.98877 36.6223 8.98877C37.6842 8.98877 38.0816 9.40701 38.0816 10.3226V13.5429H37.1619V10.5279C37.1619 9.82525 36.8172 9.70109 36.3657 9.70109C36.012 9.70109 35.5604 9.86131 35.2858 10.0215V13.5436H34.3654V9.64769V9.64769Z" fill="#036CB5"/>
<path d="M40.0292 10.8921H42.0559C42.0122 9.9585 41.5607 9.58534 41.0828 9.58534C40.5425 9.58534 40.127 10.0036 40.0292 10.8921ZM42.7641 12.565V13.2413C42.366 13.4723 41.8354 13.6505 41.1979 13.6505C39.7123 13.6505 39.1012 12.7253 39.1012 11.3207C39.1012 9.96821 39.7823 8.99023 41.1098 8.99023C42.2168 8.99023 42.8979 9.71088 42.8979 11.1605V11.49H40.0126C40.0126 12.5567 40.4461 13.0284 41.3582 13.0284C41.8347 13.027 42.2779 12.8577 42.7641 12.565Z" fill="#036CB5"/>
<path d="M46.5733 8.9895H47.5207L45.9185 13.4361C45.4753 14.6638 44.9364 15.304 43.9189 15.304V14.575C44.5209 14.575 44.892 14.0944 45.105 13.4361L43.4056 8.9895H44.3794L45.5121 12.2626H45.5655L46.5733 8.9895Z" fill="#036CB5"/>
<path d="M15.0799 17.6762V17.292C15.408 17.4584 15.7201 17.5424 16.0163 17.5424C16.2625 17.5424 16.4519 17.4973 16.5837 17.4057C16.7154 17.3149 16.782 17.1928 16.782 17.0374C16.782 16.8828 16.7279 16.7662 16.619 16.6892C16.5108 16.6123 16.3083 16.5165 16.0121 16.4035C15.9095 16.3646 15.8436 16.3397 15.8145 16.3279C15.7853 16.3161 15.7285 16.2918 15.6431 16.2564C15.5585 16.2211 15.5023 16.194 15.476 16.176C15.4496 16.1579 15.4052 16.1309 15.3421 16.0955C15.279 16.0595 15.2367 16.0276 15.2145 15.9998C15.193 15.9714 15.1625 15.9353 15.1243 15.8923C15.0862 15.8493 15.0605 15.807 15.0473 15.7633C15.0342 15.7203 15.0217 15.6703 15.0099 15.6135C14.9981 15.5566 14.9926 15.4956 14.9926 15.4304C14.9926 15.1772 15.0855 14.974 15.2714 14.8193C15.458 14.6646 15.7146 14.5876 16.0434 14.5876C16.3333 14.5876 16.6225 14.6411 16.9097 14.7486V15.1543C16.6315 15.017 16.3527 14.949 16.0746 14.949C15.8783 14.949 15.7319 14.9899 15.6348 15.0732C15.5384 15.1564 15.4899 15.2667 15.4899 15.4033C15.4899 15.549 15.5384 15.6599 15.6348 15.7355C15.7312 15.8118 15.9046 15.8958 16.1536 15.988C16.5816 16.1455 16.8764 16.2883 17.0373 16.4167C17.1989 16.5443 17.2793 16.735 17.2793 16.9875C17.2793 17.2524 17.1684 17.4695 16.9471 17.6374C16.7259 17.8052 16.4221 17.8899 16.035 17.8899C15.6792 17.8906 15.3615 17.8184 15.0799 17.6762ZM19.5536 17.8233H19.1361L19.1056 17.5646C18.8531 17.7733 18.6013 17.8774 18.3496 17.8774C18.1387 17.8774 17.975 17.8205 17.8592 17.7054C17.7434 17.5909 17.6851 17.446 17.6851 17.2698C17.6851 17.1775 17.7017 17.0894 17.7357 17.0041C17.7697 16.9195 17.8252 16.837 17.9029 16.7565C17.9806 16.6761 18.0978 16.6116 18.2545 16.5623C18.4113 16.5131 18.5999 16.4888 18.8198 16.4888H19.0924V16.3681C19.0924 16.169 19.0556 16.0331 18.9821 15.9596C18.9086 15.8868 18.7858 15.85 18.6124 15.85C18.4016 15.85 18.1422 15.9374 17.8342 16.1136V15.7564C18.1505 15.6107 18.4612 15.5372 18.7664 15.5372C19.0626 15.5372 19.2679 15.5982 19.3816 15.721C19.4961 15.8424 19.5529 16.0276 19.5529 16.2738V17.8233H19.5536ZM19.0966 16.8009H18.8635C18.3829 16.8009 18.1422 16.9452 18.1422 17.2344C18.1422 17.3357 18.1741 17.4085 18.2386 17.455C18.3031 17.5014 18.3835 17.5243 18.4807 17.5243C18.6034 17.5243 18.722 17.4945 18.8365 17.4349C18.9509 17.3759 19.0376 17.3072 19.0959 17.2296V16.8009H19.0966ZM20.268 18.7159V15.8639C20.3971 15.7654 20.549 15.6863 20.7251 15.6267C20.9013 15.5677 21.074 15.5372 21.2439 15.5372C21.8536 15.5372 22.1581 15.911 22.1581 16.658C22.1581 17.0451 22.079 17.3412 21.9209 17.5458C21.7627 17.7511 21.5359 17.8538 21.2391 17.8538C21.0338 17.8538 20.8625 17.8018 20.7244 17.6984V18.7159H20.268ZM20.721 16.0151V17.3683C20.7799 17.4245 20.8534 17.4668 20.9429 17.4952C21.0324 17.5236 21.1108 17.5375 21.178 17.5375C21.339 17.5375 21.4659 17.4744 21.5581 17.3482C21.6504 17.2212 21.6962 16.9917 21.6962 16.6587C21.6962 16.3882 21.649 16.1892 21.5533 16.065C21.4583 15.9395 21.3341 15.877 21.1815 15.877C21.0095 15.877 20.8562 15.9228 20.721 16.0151ZM23.2075 15.5601V17.8226H22.7504V15.671L23.2075 15.5601ZM22.6797 14.9039C22.6797 14.8235 22.7095 14.7534 22.7699 14.6917C22.8302 14.6306 22.8996 14.6001 22.9786 14.6001C23.0577 14.6001 23.1277 14.6306 23.1881 14.6917C23.2484 14.7527 23.2783 14.8235 23.2783 14.9039C23.2783 14.9844 23.2484 15.0551 23.1881 15.1162C23.1277 15.1765 23.0584 15.207 22.9786 15.207C22.8996 15.207 22.8302 15.1765 22.7699 15.1162C22.7095 15.0551 22.6797 14.9844 22.6797 14.9039ZM24.92 17.5639C25.1309 17.5639 25.3639 17.4862 25.6191 17.3322V17.6714C25.3847 17.8087 25.1253 17.8767 24.8409 17.8767C24.483 17.8767 24.2202 17.774 24.0516 17.5687C23.8831 17.3634 23.7985 17.0763 23.7985 16.7073C23.7985 16.3556 23.8852 16.0726 24.0579 15.8597C24.2313 15.6454 24.4768 15.5379 24.7965 15.5379C25.0781 15.5379 25.2959 15.6301 25.452 15.8153C25.6074 15.9998 25.685 16.2703 25.685 16.6275V16.7926H24.2521C24.2521 17.0575 24.3062 17.2524 24.4144 17.3766C24.5226 17.5021 24.6911 17.5639 24.92 17.5639ZM24.7834 15.8368C24.646 15.8368 24.5302 15.8916 24.4359 16.0019C24.3422 16.1122 24.2833 16.2759 24.2604 16.493H25.2675C25.2557 16.2731 25.2044 16.1087 25.1135 16.0005C25.0227 15.8909 24.9124 15.8368 24.7834 15.8368ZM26.267 17.8233V15.868C26.6276 15.6475 27.0015 15.5372 27.3885 15.5372C27.6493 15.5372 27.8352 15.5913 27.9469 15.6981C28.0585 15.8056 28.114 15.9748 28.114 16.2065V17.8226H27.6569V16.3098C27.6569 16.1462 27.6229 16.0359 27.5557 15.9797C27.4884 15.9228 27.3899 15.8951 27.2609 15.8951C27.0854 15.8951 26.9065 15.9492 26.7247 16.056V17.8233H26.267ZM29.2633 15.6454H29.9583L29.848 15.9492H29.2633V17.1276C29.2633 17.4251 29.3895 17.5743 29.6413 17.5743C29.7377 17.5743 29.8362 17.5535 29.9361 17.5118V17.7976C29.7981 17.851 29.6337 17.8781 29.4436 17.8781C29.2238 17.8781 29.0629 17.815 28.9602 17.688C28.8575 17.5618 28.8062 17.396 28.8062 17.19V15.3513L29.2633 15.0163V15.6454V15.6454ZM30.853 15.5601V17.8226H30.3959V15.671L30.853 15.5601ZM30.3259 14.9039C30.3259 14.8235 30.3557 14.7534 30.4154 14.6917C30.4757 14.6306 30.5451 14.6001 30.6241 14.6001C30.7032 14.6001 30.7733 14.6306 30.8329 14.6917C30.8933 14.7527 30.9231 14.8235 30.9231 14.9039C30.9231 14.9844 30.8933 15.0551 30.8329 15.1162C30.7733 15.1765 30.7032 15.207 30.6241 15.207C30.5451 15.207 30.475 15.1765 30.4154 15.1162C30.3557 15.0551 30.3259 14.9844 30.3259 14.9039ZM33.9659 15.7161V16.0726C33.746 15.9242 33.5234 15.85 33.298 15.85C33.1835 15.85 33.0899 15.8722 33.0164 15.9173C32.9435 15.9617 32.9068 16.0331 32.9068 16.1309C32.9068 16.2238 32.947 16.2974 33.0274 16.3522C33.1079 16.4076 33.2348 16.4631 33.4082 16.5193C33.5046 16.5519 33.5775 16.5776 33.6253 16.5956C33.6739 16.6136 33.7377 16.6435 33.8168 16.6851C33.8958 16.7267 33.9555 16.7683 33.995 16.8099C34.0345 16.8515 34.0706 16.9063 34.1025 16.975C34.1344 17.0437 34.1504 17.1193 34.1504 17.2025C34.1504 17.4078 34.0692 17.5715 33.9069 17.6936C33.7439 17.8156 33.5261 17.8767 33.2543 17.8767C32.9491 17.8767 32.6959 17.8115 32.4934 17.6797V17.3315C32.7514 17.4862 32.9872 17.5632 33.2015 17.5632C33.5234 17.5632 33.685 17.4564 33.685 17.242C33.685 17.2004 33.6753 17.1616 33.6565 17.1262C33.6378 17.0908 33.6156 17.0617 33.5906 17.0388C33.5657 17.0166 33.5254 16.9917 33.4693 16.9625C33.4138 16.9348 33.3666 16.914 33.3285 16.9008C33.2903 16.8876 33.2307 16.8661 33.1481 16.8363C33.0281 16.7919 32.9324 16.7531 32.8624 16.7205C32.7916 16.6872 32.7216 16.6449 32.6515 16.5935C32.5808 16.5415 32.5294 16.4791 32.4975 16.4083C32.4656 16.3369 32.449 16.2523 32.449 16.1538C32.449 16.0289 32.4781 15.9221 32.5371 15.8327C32.5953 15.7425 32.6723 15.6787 32.766 15.6405C32.8596 15.6017 32.9456 15.5746 33.0233 15.5601C33.101 15.5448 33.178 15.5372 33.2543 15.5372C33.5033 15.5372 33.7405 15.5968 33.9659 15.7161ZM36.3949 17.8233H35.9773L35.9461 17.5646C35.6936 17.7733 35.4419 17.8774 35.1901 17.8774C34.9792 17.8774 34.8155 17.8205 34.6997 17.7054C34.5839 17.5909 34.5263 17.446 34.5263 17.2698C34.5263 17.1775 34.543 17.0894 34.5769 17.0041C34.6109 16.9195 34.6664 16.837 34.7441 16.7565C34.8218 16.6761 34.939 16.6116 35.0958 16.5623C35.2525 16.5131 35.4412 16.4888 35.6603 16.4888H35.9329V16.3681C35.9329 16.169 35.8962 16.0331 35.8233 15.9596C35.7498 15.8868 35.6264 15.85 35.4536 15.85C35.2421 15.85 34.9827 15.9374 34.6754 16.1136V15.7564C34.9924 15.6107 35.3024 15.5372 35.6076 15.5372C35.9038 15.5372 36.1084 15.5982 36.2228 15.721C36.3373 15.8424 36.3942 16.0276 36.3942 16.2738V17.8233H36.3949ZM35.9385 16.8009H35.7054C35.2248 16.8009 34.9841 16.9452 34.9841 17.2344C34.9841 17.3357 35.0167 17.4085 35.0805 17.455C35.145 17.5014 35.2255 17.5243 35.3226 17.5243C35.4453 17.5243 35.5639 17.4945 35.6784 17.4349C35.7928 17.3759 35.8795 17.3072 35.9378 17.2296V16.8009H35.9385ZM37.5448 15.6454H38.2391L38.1288 15.9492H37.5441V17.1276C37.5441 17.4251 37.6704 17.5743 37.9222 17.5743C38.0193 17.5743 38.1171 17.5535 38.2169 17.5118V17.7976C38.0789 17.851 37.9152 17.8781 37.7238 17.8781C37.5046 17.8781 37.343 17.815 37.2404 17.688C37.1377 17.5618 37.0864 17.396 37.0864 17.19V15.3513L37.5441 15.0163V15.6454H37.5448Z" fill="#B6B6B6"/>
</g>
<defs>
<clipPath id="clip0_1103_2140">
<rect width="68.666" height="20.8079" fill="white" transform="translate(0.977905 0.685059)"/>
</clipPath>
</defs>
</svg>
