<svg width="167" height="35" viewBox="0 0 167 35" fill="none" xmlns="http://www.w3.org/2000/svg">
<g clip-path="url(#clip0_153_4057)">
<path d="M68.8805 27.914H64.5408L60.3092 11.8826L56.0343 27.914H51.6009L45.7834 7.07959H49.7194L53.9149 23.6495L58.4926 7.07959H62.4646L66.7683 23.75L70.7476 7.07959H74.5467L68.8805 27.914Z" fill="#0078D4"/>
<path d="M80.1119 8.60162C80.1119 9.16161 79.9028 9.63544 79.4847 10.0088C79.081 10.3821 78.5836 10.5688 77.9997 10.5688C77.4158 10.5688 76.9184 10.3821 76.5147 10.0088C76.111 9.63544 75.9019 9.16161 75.9019 8.60162C75.9019 8.02727 76.1038 7.54626 76.5147 7.16576C76.9328 6.77807 77.4302 6.58423 77.9997 6.58423C78.6052 6.58423 79.1026 6.78525 79.5063 7.18011C79.91 7.57498 80.1119 8.04881 80.1119 8.60162ZM76.1903 27.914V12.902H79.7082V27.9212H76.1903V27.914Z" fill="#0078D4"/>
<path d="M93.232 27.9141V19.5574C93.232 17.3677 92.5471 15.4795 90.334 15.4795C88.1281 15.4795 86.7296 17.4538 86.7296 19.4569V27.9213H83.291V12.9022H86.7296V15.0272H86.7873C87.9263 13.2683 89.5771 12.6509 91.7253 12.6509C93.3401 12.6509 94.5944 13.0457 95.4739 14.0724C96.3678 15.099 96.7571 16.6641 96.7571 18.7533V27.9141H93.232Z" fill="#0078D4"/>
<path d="M110.497 27.914V25.9828H110.439C109.351 27.8135 107.123 28.2299 105.566 28.2299C100.953 28.2299 99.2586 24.6618 99.2586 20.8567C99.2586 18.3368 99.8857 16.3194 101.147 14.8117C102.416 13.2897 104.117 12.6292 106.237 12.6292C109.546 12.6292 110.439 14.4599 110.439 14.4599H110.497V5.77295H114.066V27.914H110.497ZM110.526 19.3634C110.526 17.547 109.358 15.4866 106.886 15.4866C104.06 15.4866 102.964 17.9347 102.964 20.7562C102.964 23.2187 104.002 25.4587 106.691 25.4946C109.329 25.4946 110.504 22.989 110.526 20.9213V19.3634Z" fill="#0078D4"/>
<path d="M132.059 20.3398C132.059 25.5376 128.937 28.3591 124.252 28.3591C119.155 28.3591 116.545 25.3223 116.545 20.6629C116.545 15.3358 119.674 12.5718 124.626 12.5718C129.154 12.579 132.059 15.465 132.059 20.3398ZM128.397 20.4619C128.397 18.1501 127.575 15.5727 124.425 15.5727C121.411 15.5727 120.236 17.8055 120.236 20.548C120.236 23.5274 121.642 25.4156 124.403 25.4156C127.359 25.4228 128.375 23.1613 128.397 20.4619Z" fill="#0078D4"/>
<path d="M150.924 27.914H147.046L144.083 17.0445L140.904 27.914H137.141L132.758 12.9451H136.442L139.304 24.5756L142.649 12.9451H146.102L149.086 24.5469L151.876 12.9451H155.25L150.924 27.914Z" fill="#0078D4"/>
<path d="M166.279 23.7356C166.279 27.0811 163.237 28.3806 160.181 28.3806C158.191 28.3806 156.216 27.6196 156.216 27.6196V24.0658C156.216 24.0658 157.939 25.5591 160.339 25.5807C161.983 25.5807 162.725 25.0638 162.725 24.0802C162.768 23.2905 162.285 22.8525 161.709 22.5295C161.312 22.2925 160.692 21.9982 159.849 21.6536C158.854 21.23 158.119 20.8208 157.629 20.4259C157.153 20.031 156.792 19.5644 156.554 19.0331C156.324 18.5018 156.158 17.9131 156.158 17.2024C156.158 14.503 158.422 12.5933 162.033 12.5933C164.419 12.5933 165.457 13.1748 165.457 13.1748V16.5563C165.457 16.5563 163.763 15.386 161.997 15.3788C160.736 15.3788 159.777 15.8383 159.762 16.8721C159.755 18.2075 161.399 18.8608 162.379 19.2557C163.807 19.83 164.852 20.4403 165.436 21.1438C166.027 21.8331 166.279 22.5438 166.279 23.7356Z" fill="#0078D4"/>
<path d="M16.6524 0.000976562H0V16.5852H16.6524V0.000976562Z" fill="#0078D4"/>
<path d="M35.1359 0.000732422H18.4835V16.585H35.1359V0.000732422Z" fill="#0078D4"/>
<path d="M16.6524 18.4087H0V35.0001H16.6524V18.4087Z" fill="#0078D4"/>
<path d="M35.1359 18.4087H18.4835V35.0001H35.1359V18.4087Z" fill="#0078D4"/>
</g>
<defs>
<clipPath id="clip0_153_4057">
<rect width="167" height="35" fill="white"/>
</clipPath>
</defs>
</svg>
