<svg width="32" height="32" viewBox="0 0 32 32" fill="none" xmlns="http://www.w3.org/2000/svg">
<path fill-rule="evenodd" clip-rule="evenodd" d="M22.8581 4.46174C20.285 4.46174 18.1991 6.52394 18.1991 9.0678H13.8313C13.8313 4.13907 17.8727 0.143555 22.8581 0.143555C27.8435 0.143555 31.8849 4.13907 31.8849 9.0678C31.8849 13.9965 27.8435 17.992 22.8581 17.992V13.6739C25.4312 13.6739 27.5171 11.6117 27.5171 9.0678C27.5171 6.52394 25.4312 4.46174 22.8581 4.46174Z" fill="url(#paint0_linear_294_6879)"/>
<path fill-rule="evenodd" clip-rule="evenodd" d="M27.5172 22.5983C27.5172 20.0544 25.4313 17.9922 22.8582 17.9922L21.4022 17.9922L21.4022 13.674L22.8582 13.674C27.8436 13.674 31.885 17.6695 31.885 22.5983C31.885 27.527 27.8436 31.5225 22.8582 31.5225C17.8728 31.5225 13.8314 27.527 13.8314 22.5983L18.1992 22.5983C18.1992 25.1421 20.2851 27.2043 22.8582 27.2043C25.4313 27.2043 27.5172 25.1421 27.5172 22.5983Z" fill="url(#paint1_linear_294_6879)"/>
<path fill-rule="evenodd" clip-rule="evenodd" d="M9.17216 27.2043C11.7453 27.2043 13.8312 25.1421 13.8312 22.5982L13.8312 10.5073L18.199 10.5073L18.199 22.5982C18.199 27.5269 14.1575 31.5225 9.17215 31.5225C4.18678 31.5225 0.145335 27.5269 0.145336 22.5982C0.145336 17.6695 4.18678 13.674 9.17216 13.674L9.17216 17.9922C6.59906 17.9922 4.51315 20.0544 4.51315 22.5982C4.51315 25.1421 6.59906 27.2043 9.17216 27.2043Z" fill="url(#paint2_linear_294_6879)"/>
<path fill-rule="evenodd" clip-rule="evenodd" d="M4.51357 9.06794C4.51357 11.6118 6.59947 13.674 9.17257 13.674L21.4025 13.674L21.4025 17.9922L9.17257 17.9922C4.1872 17.9922 0.145752 13.9967 0.145753 9.06794C0.145754 4.13922 4.1872 0.143702 9.17257 0.143702C14.1579 0.143703 18.1994 4.13922 18.1994 9.06795L13.8316 9.06795C13.8316 6.52409 11.7457 4.46188 9.17257 4.46188C6.59948 4.46188 4.51357 6.52409 4.51357 9.06794Z" fill="#2029F9"/>
<path fill-rule="evenodd" clip-rule="evenodd" d="M13.8312 9.06796C13.8312 6.5241 11.7453 4.4619 9.17224 4.4619L9.17224 0.143716C14.1576 0.143717 18.1991 4.13923 18.1991 9.06796L18.1991 13.674L13.8312 13.674L13.8312 9.06796Z" fill="url(#paint3_linear_294_6879)"/>
<defs>
<linearGradient id="paint0_linear_294_6879" x1="25.1876" y1="15.8329" x2="18.9986" y2="9.57282" gradientUnits="userSpaceOnUse">
<stop stop-color="#FF8A01"/>
<stop offset="1" stop-color="#F01313"/>
</linearGradient>
<linearGradient id="paint1_linear_294_6879" x1="21.9846" y1="17.5604" x2="17.6344" y2="24.9117" gradientUnits="userSpaceOnUse">
<stop stop-color="#2029F9"/>
<stop offset="1" stop-color="#7F20F9"/>
</linearGradient>
<linearGradient id="paint2_linear_294_6879" x1="17.3254" y1="24.9012" x2="21.6538" y2="12.443" gradientUnits="userSpaceOnUse">
<stop stop-color="#FF8A00"/>
<stop offset="1" stop-color="#F11414"/>
</linearGradient>
<linearGradient id="paint3_linear_294_6879" x1="8.70837" y1="1.58312" x2="12.4915" y2="11.5084" gradientUnits="userSpaceOnUse">
<stop stop-color="#2029F9"/>
<stop offset="1" stop-color="#7F20F9"/>
</linearGradient>
</defs>
</svg>
