<?xml version="1.0" encoding="UTF-8" standalone="no"?>
<svg
   width="32px"
   height="32px"
   viewBox="0 0 32 32"
   id="Camada_1"
   style="enable-background:new 0 0 32 32;"
   version="1.1"
   xml:space="preserve"
   sodipodi:docname="logo-microsoft-vs-code-svgrepo-com.svg"
   inkscape:version="1.2.1 (9c6d41e410, 2022-07-14, custom)"
   xmlns:inkscape="http://www.inkscape.org/namespaces/inkscape"
   xmlns:sodipodi="http://sodipodi.sourceforge.net/DTD/sodipodi-0.dtd"
   xmlns="http://www.w3.org/2000/svg"
   xmlns:svg="http://www.w3.org/2000/svg"><defs
     id="defs11" /><sodipodi:namedview
     id="namedview9"
     pagecolor="#ffffff"
     bordercolor="#000000"
     borderopacity="0.25"
     inkscape:showpageshadow="2"
     inkscape:pageopacity="0.0"
     inkscape:pagecheckerboard="0"
     inkscape:deskcolor="#d1d1d1"
     showgrid="false"
     inkscape:zoom="27.03125"
     inkscape:cx="16.018497"
     inkscape:cy="15.981503"
     inkscape:window-width="1920"
     inkscape:window-height="1012"
     inkscape:window-x="1920"
     inkscape:window-y="32"
     inkscape:window-maximized="1"
     inkscape:current-layer="Camada_1" /><style
     type="text/css"
     id="style2">
	.st0{fill:#FFFFFF;}
</style><path
     d="M6,2h20c2.2,0,4,1.8,4,4v20c0,2.2-1.8,4-4,4H6c-2.2,0-4-1.8-4-4V6C2,3.8,3.8,2,6,2z"
     id="path4" /><path
     class="st0"
     d="M26,24l-4.9,2l-8.1-8l-5.1,4l-2-1V11l2-1l5.1,4l8-8L26,8V24z M15.7,16l5.3,4.1l0,0v-8.3L15.7,16L15.7,16z   M7.9,19.1L7.9,19.1L11,16l-3-3.1l0,0L7.9,19.1L7.9,19.1z"
     id="path6"
     style="fill:#ff00ff" /></svg>
